# xmcd
#
# Track frame offsets: 
#        150
#        19237
#        39239
#        55363
#        75634
#        92986
#        107756
#        138689
#
# Disc length: 2113 seconds
#
# Revision: 0
# Processed by: cddbd v1.5.2PL0 Copyright (c) Steve Scherf et al.
# Submitted via: ExactAudioCopyFreeDBPlugin 1.0
#
DISCID=67083f08
DTITLE=the SleepWalkers - Boneyard Moan
DYEAR=2016
DGENRE=Blues
TTITLE0=Rainbow Wolf
TTITLE1=Highway Ten
TTITLE2=Boneyard Moan
TTITLE3=Tiny Fingers
TTITLE4=One Hit Wonder
TTITLE5=Walking to Chicago
TTITLE6=Mississippi
TTITLE7=Tear it Down
EXTD=
EXTT0=
EXTT1=
EXTT2=
EXTT3=
EXTT4=
EXTT5=
EXTT6=
EXTT7=
PLAYORDER=
